<svg xmlns="http://www.w3.org/2000/svg" width="60" height="60" viewBox="0 0 60 60">
  <path fill="#000000" fill-rule="evenodd" d="M750.003951,2695 C733.433426,2695 720,2708.43343 720,2725.00395 C720,2741.56657 733.433426,2755 750.003951,2755 C766.566574,2755 780,2741.56657 780,2725.00395 C780,2708.43343 766.566574,2695 750.003951,2695 L750.003951,2695 Z M754.326353,2717.02292 L762.228368,2717.02292 L762.228368,2719.39352 L754.326353,2719.39352 L754.326353,2717.02292 Z M749.830107,2731.14382 C749.498222,2731.69696 749.071513,2732.16318 748.565784,2732.53457 C747.996839,2732.96918 747.325168,2733.23785 746.542868,2733.40379 C745.768471,2733.56183 744.930857,2733.61715 744.022126,2733.61715 L736.151719,2733.61715 L736.151719,2716.23271 L744.598973,2716.23271 C746.787831,2716.23271 748.328724,2716.77795 749.237456,2718.00277 C749.782695,2718.75346 750.059265,2719.59897 750.059265,2720.64204 C750.059265,2721.71671 749.782695,2722.55433 749.229554,2723.21019 C748.921375,2723.58159 748.47096,2723.90557 747.870407,2724.20585 C748.779139,2724.53773 749.466614,2725.04346 749.932833,2725.75464 C750.399052,2726.46582 750.62821,2727.31924 750.62821,2728.3307 C750.62821,2729.38167 750.367444,2730.32201 749.830107,2731.14382 L749.830107,2731.14382 Z M764.899249,2728.08574 L755.266693,2728.08574 C755.322007,2729.66614 755.780324,2730.2983 756.649546,2730.81983 C757.178981,2731.15172 757.811142,2731.30186 758.553931,2731.30186 C759.344133,2731.30186 759.984196,2731.04899 760.474121,2730.65389 C760.742789,2730.44054 760.987752,2730.45634 761.185302,2729.66614 L764.717503,2729.66614 C764.622679,2730.45634 764.19597,2731.31766 763.437377,2732.11576 C762.252074,2733.38009 760.592651,2734.10707 758.459107,2734.10707 C756.696958,2734.10707 755.148163,2733.56974 753.80482,2732.50296 C752.453576,2731.42829 751.781904,2729.68985 751.781904,2727.27183 C751.781904,2725.01185 752.39036,2723.28131 753.60727,2722.0723 C754.82418,2720.8712 756.396681,2720.26274 758.332675,2720.26274 C759.486369,2720.26274 760.521533,2720.46819 761.446069,2720.8712 C762.370605,2721.2821 763.129198,2721.92217 763.729751,2722.80719 C764.27499,2723.58159 764.622679,2724.47452 764.788621,2725.49388 C764.883445,2726.09443 764.915053,2727.29554 764.899249,2728.08574 L764.899249,2728.08574 Z M758.332675,2723.04425 C759.154484,2723.04425 759.834058,2723.2339 760.387199,2723.70012 C760.94034,2724.17424 761.248518,2724.92493 761.311734,2725.71513 L755.345713,2725.71513 C755.472145,2724.92493 755.780324,2724.25326 756.270249,2723.76333 C756.760174,2723.26551 757.447649,2723.04425 758.332675,2723.04425 Z M746.858949,2728.08574 C746.858949,2729.16831 746.463848,2729.83208 745.681549,2730.21138 C745.246938,2730.42473 744.646385,2730.45634 743.864085,2730.45634 L739.312525,2730.45634 L739.312525,2725.71513 L743.927301,2725.71513 C744.693797,2725.71513 745.29435,2725.91268 745.721059,2726.10233 C746.479652,2726.45002 746.858949,2727.1612 746.858949,2728.08574 Z M743.871987,2723.34453 L739.312525,2723.34453 L739.312525,2719.39352 L743.421573,2719.39352 C744.27499,2719.39352 744.978269,2719.3303 745.531411,2719.51205 C746.171474,2719.77282 746.495456,2720.23904 746.495456,2721.06085 C746.495456,2721.80363 746.250494,2722.46345 745.768471,2722.75583 C745.278546,2723.0482 744.646385,2723.34453 743.871987,2723.34453 Z" transform="translate(-720 -2695)"/>
</svg>
