<svg xmlns="http://www.w3.org/2000/svg" width="30" height="30" viewBox="0 0 30 30">
  <path fill="#000000" d="M16.0086113,15 L29.7912435,1.21725197 C30.0695855,0.938571525 30.0695855,0.48743865 29.7912435,0.208758208 C29.5129016,-0.0695860693 29.0611002,-0.0695860693 28.7827583,0.208758208 L15.0001261,13.9915062 L1.21749386,0.208758208 C0.93915192,-0.0695860693 0.487350513,-0.0695860693 0.209008575,0.208758208 C-0.069669525,0.48743865 -0.069669525,0.938571525 0.209008575,1.21725197 L13.9916408,15 L0.209008575,28.782748 C-0.069669525,29.0610923 -0.069669525,29.5128975 0.209008575,29.7912418 C0.348179544,29.9304139 0.53071538,30 0.713251216,30 C0.895787053,30 1.07832289,29.9304139 1.21749386,29.7912418 L15.0001261,16.0088299 L28.7827583,29.7912418 C28.9219292,29.9304139 29.1044651,30 29.2870009,30 C29.4695367,30 29.6520726,29.9304139 29.7912435,29.7912418 C30.0695855,29.5128975 30.0695855,29.0610923 29.7912435,28.782748 L16.0086113,15 Z"/>
</svg>
