<svg xmlns="http://www.w3.org/2000/svg" width="60" height="60" viewBox="0 0 60 60">
  <g fill="#000000" fill-rule="evenodd">
    <path d="M30.0233766,0.101298701 C13.6831169,0.101298701 0.436363636,13.3480519 0.436363636,29.6883117 C0.436363636,46.0207792 13.6831169,59.2675325 30.0233766,59.2675325 C46.3558442,59.2675325 59.6025974,46.0207792 59.6025974,29.6883117 C59.6025974,13.3480519 46.3558442,0.101298701 30.0233766,0.101298701 L30.0233766,0.101298701 Z M44.0181818,32.4857143 C43.8311688,33.4051948 43.5506494,34.3090909 43.1844156,35.1662338 C42.825974,36.0155844 42.3818182,36.8337662 41.8675325,37.5974026 C41.361039,38.3532468 40.7688312,39.0623377 40.1220779,39.7090909 C39.4753247,40.3558442 38.7662338,40.9402597 38.0103896,41.4545455 C37.2467532,41.9688312 36.4285714,42.412987 35.587013,42.7714286 C34.7220779,43.1376623 33.8181818,43.4181818 32.8987013,43.6051948 C31.9558442,43.8 30.9896104,43.8935065 30.0233766,43.8935065 C29.0493506,43.8935065 28.0831169,43.8 27.1402597,43.6051948 C26.2285714,43.4181818 25.3246753,43.1376623 24.4597403,42.7714286 C23.6103896,42.412987 22.7922078,41.9688312 22.0285714,41.4545455 C21.2727273,40.9402597 20.5636364,40.3558442 19.9168831,39.7090909 C19.2701299,39.0623377 18.6857143,38.3532468 18.1714286,37.5974026 C17.6571429,36.8337662 17.212987,36.0155844 16.8545455,35.1662338 C16.4883117,34.3090909 16.2077922,33.4051948 16.0207792,32.4857143 C15.825974,31.5428571 15.7324675,30.5766234 15.7324675,29.6025974 C15.7324675,28.6363636 15.825974,27.6701299 16.0207792,26.7272727 C16.2077922,25.8155844 16.4883117,24.9038961 16.8545455,24.0467532 C17.212987,23.1974026 17.6571429,22.3792208 18.1714286,21.6155844 C18.6857143,20.8597403 19.2701299,20.1506494 19.9168831,19.5038961 C20.5636364,18.8571429 21.2727273,18.2727273 22.0285714,17.7584416 C22.7922078,17.2441558 23.6103896,16.8 24.4597403,16.4415584 C25.3246753,16.0753247 26.2285714,15.7948052 27.1402597,15.6077922 C28.0831169,15.412987 29.0493506,15.3194805 30.0233766,15.3194805 C30.9896104,15.3194805 31.9558442,15.412987 32.8987013,15.6077922 C33.8181818,15.7948052 34.7220779,16.0753247 35.587013,16.4415584 C36.4285714,16.8 37.2467532,17.2441558 38.0103896,17.7584416 C38.7662338,18.2727273 39.4753247,18.8571429 40.1220779,19.5038961 C40.7688312,20.1506494 41.361039,20.8597403 41.8675325,21.6155844 C42.3818182,22.3792208 42.825974,23.1974026 43.1844156,24.0467532 C43.5506494,24.9038961 43.8311688,25.8155844 44.0181818,26.7272727 C44.212987,27.6701299 44.3064935,28.6363636 44.3064935,29.6025974 C44.3064935,30.5766234 44.212987,31.5428571 44.0181818,32.4857143 L44.0181818,32.4857143 Z"/>
    <path d="M18.0779221,27.0935065 C18.8727273,23.3142857 21.412987,20.174026 24.8181818,18.5688312 C24.974026,18.787013 27.2337662,21.8493506 29.3454545,25.6051948 C23.4857143,27.1558442 18.3974026,27.0935065 18.0779221,27.0935065 Z M20.9376623,37.7532468 C18.9974026,35.587013 17.8207792,32.7428571 17.8207792,29.6025974 C17.8207792,29.4779221 17.8207792,29.3454545 17.8285714,29.2207792 C18.0467532,29.2285714 24.0701299,29.361039 30.3584416,27.4831169 C30.7090909,28.1688312 31.0363636,28.8623377 31.3480519,29.5558442 C31.1844156,29.6025974 31.0285714,29.6493506 30.8649351,29.7038961 C24.2805195,31.8311688 20.9376623,37.7532468 20.9376623,37.7532468 Z M32.1818182,31.574026 C33.8961039,36.038961 34.6051948,39.7714286 34.7844156,40.838961 C33.3194805,41.4623377 31.7142857,41.812987 30.0233766,41.812987 C27.1948052,41.812987 24.5922078,40.8467532 22.5194805,39.225974 C22.5194805,39.225974 24.8571429,34.1220779 32.0961039,31.6051948 C32.1272727,31.5896104 32.1506494,31.5896104 32.1818182,31.574026 Z M31.7064935,24.8649351 C29.6181818,21.0311688 27.3272727,17.9922078 27.1480519,17.7506494 C28.0675325,17.5246753 29.0337662,17.4 30.0233766,17.4 C33.1090909,17.4 35.9298701,18.5532468 38.0805195,20.4467532 C38.0493506,20.4935065 36.3116883,23.1428571 31.7064935,24.8649351 Z M42.0701299,31.5428571 C41.5246753,34.9480519 39.5766234,37.8779221 36.8415584,39.7246753 C36.7168831,38.9922078 36.0623377,35.4077922 34.4649351,31.012987 C38.4077922,30.3818182 41.8207792,31.4649351 42.0701299,31.5428571 Z M39.4441558,21.8571429 C41.1584416,23.9376623 42.1948052,26.587013 42.2181818,29.4857143 C42.0467532,29.4467532 37.9168831,28.5584416 33.7246753,29.0805195 C33.6311688,28.8779221 33.5454545,28.6675325 33.4597403,28.4571429 C33.2025974,27.8571429 32.9298701,27.2649351 32.6493506,26.6883117 C37.4649351,24.7168831 39.4207792,21.8883117 39.4441558,21.8571429 Z"/>
  </g>
</svg>
