<svg xmlns="http://www.w3.org/2000/svg" width="60" height="60" viewBox="0 0 60 60">
  <path fill="#000000" fill-rule="evenodd" d="M875.003951,2695 C858.433426,2695 845,2708.43343 845,2725.00395 C845,2741.56657 858.433426,2755 875.003951,2755 C891.566574,2755 905,2741.56657 905,2725.00395 C905,2708.43343 891.566574,2695 875.003951,2695 L875.003951,2695 Z M861.94192,2720.18372 L867.473331,2720.18372 L867.473331,2738.35836 L861.94192,2738.35836 L861.94192,2720.18372 Z M864.383643,2718.60332 L864.344133,2718.60332 C862.281707,2718.60332 860.954168,2717.03082 860.954168,2715.28447 C860.954168,2713.50652 862.321217,2712.06045 864.423153,2712.06045 C866.517187,2712.06045 867.805215,2713.55393 867.852627,2715.33188 C867.852627,2717.07823 866.517187,2718.60332 864.383643,2718.60332 L864.383643,2718.60332 Z M890.389174,2738.35836 L883.277361,2738.35836 L883.277361,2729.15251 C883.277361,2726.71079 882.463453,2725.05136 880.242987,2725.05136 C878.551956,2725.05136 877.572106,2726.17345 877.129593,2727.25603 C876.963651,2727.64322 876.955749,2728.18056 876.955749,2728.7258 L876.955749,2738.35836 L870.839589,2738.35836 C870.839589,2738.35836 870.918609,2721.76412 870.839589,2720.18372 L876.955749,2720.18372 L876.955749,2723.28921 C877.74595,2722.0565 879.642434,2720.29435 882.898064,2720.29435 C886.935994,2720.29435 890.389174,2722.87831 890.389174,2728.45713 L890.389174,2738.35836 L890.389174,2738.35836 Z" transform="translate(-845 -2695)"/>
</svg>
