<svg xmlns="http://www.w3.org/2000/svg" width="60" height="60" viewBox="0 0 60 60">
  <path fill="#000000" fill-rule="evenodd" d="M999.003951,2695 C982.433426,2695 969,2708.43343 969,2725.00395 C969,2741.56657 982.433426,2755 999.003951,2755 C1015.56657,2755 1029,2741.56657 1029,2725.00395 C1029,2708.43343 1015.56657,2695 999.003951,2695 L999.003951,2695 Z M1010.40656,2718.64283 C1010.41446,2718.9115 1010.42236,2719.18017 1010.42236,2719.44883 C1010.42236,2727.67483 1004.31411,2737.16515 993.148558,2737.16515 C989.719083,2737.16515 986.526669,2736.12999 983.839984,2734.36784 C984.314105,2734.42315 984.796128,2734.45476 985.286053,2734.45476 C988.130778,2734.45476 990.754247,2733.45911 992.832477,2731.79178 C990.169498,2731.73647 987.933228,2729.94271 987.158831,2727.46938 C987.530225,2727.5405 987.909522,2727.58001 988.296721,2727.58001 C988.857764,2727.58001 989.458317,2727.50099 989.964046,2727.35875 C987.182537,2726.78981 985.151719,2724.26906 985.151719,2721.25049 L985.151719,2721.17938 C985.94192,2721.63769 986.850652,2721.92217 987.846306,2721.95377 C986.210589,2720.83959 985.112209,2718.9273 985.112209,2716.77005 C985.112209,2715.63216 985.396681,2714.55749 985.918214,2713.64085 C988.913078,2717.41011 993.377716,2719.88345 998.427104,2720.14421 C998.316476,2719.68589 998.265113,2719.21177 998.265113,2718.72975 C998.265113,2715.29237 1000.98104,2712.50296 1004.33228,2712.50296 C1006.07863,2712.50296 1007.65745,2713.25365 1008.76373,2714.46266 C1010.14658,2714.18609 1011.44251,2713.67246 1012.61991,2712.95338 C1012.1695,2714.40735 1011.20466,2715.63216 1009.94824,2716.39866 C1011.18096,2716.24852 1012.35045,2715.91663 1013.43303,2715.41881 C1012.62702,2716.66733 1011.59186,2717.76571 1010.40656,2718.64283 L1010.40656,2718.64283 Z" transform="translate(-969 -2695)"/>
</svg>
